<svg width="50" height="30" viewBox="0 0 50 30" fill="none" xmlns="http://www.w3.org/2000/svg">
<g clip-path="url(#clip0_12002_3532)">
<path d="M34.0972 0H15C6.71573 0 0 6.71573 0 15C0 23.2843 6.71573 30 15 30H34.0972C42.3815 30 49.0972 23.2843 49.0972 15C49.0972 6.71573 42.3815 0 34.0972 0Z" fill="#9200E1"/>
<mask id="mask0_12002_3532" style="mask-type:alpha" maskUnits="userSpaceOnUse" x="6" y="6" width="38" height="18">
<path d="M43.0969 15.4634C42.8629 20.2177 38.934 24.0006 34.1213 24.0006C29.1583 24.0006 25.1348 19.9771 25.1348 15.0139C25.1348 10.0507 29.1583 6.02734 34.1213 6.02734C38.7813 6.02734 42.6127 9.57412 43.0637 14.1154H38.9825C38.56 11.8146 36.5443 10.0714 34.1215 10.0714C31.3917 10.0714 29.1788 12.2842 29.1788 15.0139C29.1788 17.7438 31.3917 19.9566 34.1215 19.9566C36.2172 19.9566 38.0081 18.6523 38.7271 16.8114H31.8748V15.4634H43.0969Z" fill="#FFFBF6"/>
<path d="M8.95766 21.651C12.4851 24.8473 17.9381 24.7439 21.3411 21.3411C24.8505 17.8316 24.8505 12.1416 21.3411 8.63208C17.8315 5.12264 12.1416 5.12264 8.63211 8.63208C5.33708 11.9272 5.13574 17.1443 8.02806 20.6743L10.9138 17.7886C9.58583 15.8629 9.77845 13.2049 11.4916 11.4917C13.4219 9.56146 16.5514 9.56146 18.4816 11.4917C20.4117 13.4219 20.4117 16.5514 18.4816 18.4816C16.9997 19.9635 14.811 20.3078 13.0008 19.5142L17.8461 14.6688L16.893 13.7158L8.95766 21.651Z" fill="#FFFBF6"/>
</mask>
<g mask="url(#mask0_12002_3532)">
<path d="M32.1562 3.75H16.9688C10.9109 3.75 6 8.66088 6 14.7188C6 20.7766 10.9109 25.6875 16.9688 25.6875H32.1562C38.2141 25.6875 43.125 20.7766 43.125 14.7188C43.125 8.66088 38.2141 3.75 32.1562 3.75Z" fill="white"/>
</g>
</g>
<defs>
<clipPath id="clip0_12002_3532">
<rect width="50" height="30" fill="white"/>
</clipPath>
</defs>
</svg>
